<svg width="67" height="49" viewBox="0 0 67 49" fill="none" xmlns="http://www.w3.org/2000/svg">
<path d="M10.2667 11.6503C4.66667 17.2124 0 22.7746 0 23.7016C0 24.6286 4.93333 30.4557 10.9333 36.5476C21.7333 47.5394 21.8667 47.6719 28.5333 47.6719H35.3333L23.6 36.0178C17.2 29.6611 12 23.834 12 23.0394C12 22.3773 14.4 19.3313 17.3333 16.5503L22.6667 11.3854L33.0667 21.5827C38.8 27.1448 44 31.78 44.8 31.78C45.6 31.78 47.3333 30.5881 48.6667 29.1313C51.2 26.3503 51.0667 26.2178 38.6667 13.9016C30.9333 6.22052 24.9333 1.32052 23.3333 1.32052C21.7333 1.32052 16.4 5.42593 10.2667 11.6503Z" fill="#001F49"/>
<path d="M43.9987 13.9016L56.532 26.4827L50.6654 32.4421L44.7987 38.4016L33.732 27.5421C22.932 16.8151 22.6654 16.6827 19.9987 19.1989C18.532 20.5232 17.332 22.2448 17.332 23.1719C17.332 23.9665 22.6654 29.7935 29.1987 36.1503C37.1987 44.0962 41.9987 47.6719 44.132 47.6719C47.5987 47.6719 66.6654 28.8665 66.6654 25.4232C66.6654 24.3638 61.732 18.5367 55.732 12.4448C44.932 1.45296 44.7987 1.32052 38.132 1.32052H31.332L43.9987 13.9016Z" fill="#006DFE"/>
</svg>
