<svg width="64" height="95" viewBox="0 0 64 95" fill="none" xmlns="http://www.w3.org/2000/svg">
<g id="Group 9">
<path id="Star 1" d="M32 1.48482L37.8866 7.94578L38.3183 8.41968L38.9292 8.22515L47.2576 5.57307L49.125 14.1117L49.262 14.738L49.8883 14.875L58.4269 16.7424L55.7748 25.0708L55.5803 25.6817L56.0542 26.1134L62.5152 32L56.0542 37.8866L55.5803 38.3183L55.7748 38.9292L58.4269 47.2576L49.8883 49.125L49.262 49.262L49.125 49.8883L47.2576 58.4269L38.9292 55.7748L38.3183 55.5803L37.8866 56.0542L32 62.5152L26.1134 56.0542L25.6817 55.5803L25.0708 55.7748L16.7424 58.4269L14.875 49.8883L14.738 49.262L14.1117 49.125L5.57307 47.2576L8.22515 38.9292L8.41968 38.3183L7.94578 37.8866L1.48482 32L7.94578 26.1134L8.41968 25.6817L8.22515 25.0708L5.57307 16.7424L14.1117 14.875L14.738 14.738L14.875 14.1117L16.7424 5.57307L25.0708 8.22515L25.6817 8.41968L26.1134 7.94578L32 1.48482Z" stroke="#001F49" stroke-width="2"/>
<circle id="Ellipse 22" cx="32" cy="32" r="18" stroke="#001F49" stroke-width="2"/>
<path id="Rectangle 325" d="M21 57V93L32.5 85L44 93V57" stroke="#001F49" stroke-width="2"/>
<path id="Vector 29" d="M24 32.7407L29.85 39L42 26" stroke="#001F49" stroke-width="2"/>
</g>
</svg>
