<svg width="80" height="80" viewBox="0 0 80 80" fill="none" xmlns="http://www.w3.org/2000/svg">
<g clip-path="url(#clip0_2020_4454)">
<path d="M63 28H1M63 28C63 13.0883 50.9117 1 36 1H28C13.0883 1 1 13.0883 1 28M63 28V31M1 28V67H31M55 55H31V79H55M55 55V79M55 55H79V79H55M49 55H73V31H49V55ZM49 55V47H38V55H49ZM11 59H22V67H11M11 59V67M11 59H19V51H11V59ZM11 67V33H49M44 74H50M68 74H74M62 50H68M28 10L36 10M26 23H38C40.2091 23 42 21.2091 42 19C42 16.7909 40.2091 15 38 15H26C23.7909 15 22 16.7909 22 19C22 21.2091 23.7909 23 26 23Z" stroke="#001F49" stroke-width="2"/>
</g>
<defs>
<clipPath id="clip0_2020_4454">
<rect width="80" height="80" fill="white"/>
</clipPath>
</defs>
</svg>
