<svg width="80" height="80" viewBox="0 0 80 80" fill="none" xmlns="http://www.w3.org/2000/svg">
<g id="4" clip-path="url(#clip0_328_7209)">
<path id="Rectangle 319" d="M70 7H79V79H1V7H10M64 7H16" stroke="#001F49" stroke-width="2"/>
<path id="Vector 18" d="M1 23H79" stroke="#001F49" stroke-width="2"/>
<path id="Vector 19" d="M13 0L13 16" stroke="#001F49" stroke-width="2"/>
<path id="Vector 20" d="M67 0L67 16" stroke="#001F49" stroke-width="2"/>
<path id="Ellipse 7" d="M10.1451 12.1982C9.43681 12.9199 9 13.9089 9 14.9999C9 17.2091 10.7909 18.9999 13 18.9999C15.2091 18.9999 17 17.2091 17 14.9999C17 13.9089 16.5632 12.9199 15.8549 12.1982" stroke="#001F49" stroke-width="2"/>
<path id="Ellipse 8" d="M64.1451 12.1982C63.4368 12.9199 63 13.9089 63 14.9999C63 17.2091 64.7909 18.9999 67 18.9999C69.2091 18.9999 71 17.2091 71 14.9999C71 13.9089 70.5632 12.9199 69.8549 12.1982" stroke="#001F49" stroke-width="2"/>
<path id="Union" d="M36.2 32H43.8L44.5487 36.4923C45.4155 36.7638 46.2489 37.1108 47.0412 37.5257L50.7481 34.8779L56.1221 40.2519L53.4743 43.9588C53.8891 44.7511 54.2362 45.5845 54.5077 46.4513L59 47.2V54.8L54.5077 55.5487C54.2362 56.4155 53.8891 57.2489 53.4743 58.0412L56.1219 61.7479L50.7479 67.1219L47.0412 64.4743C46.2489 64.8891 45.4155 65.2362 44.5487 65.5077L43.8 70H36.2L35.4513 65.5077C34.5844 65.2362 33.751 64.8891 32.9587 64.4742L29.2519 67.1219L23.8779 61.7479L26.5257 58.0411C26.1108 57.2488 25.7638 56.4155 25.4923 55.5487L21 54.8V47.2L25.4923 46.4513C25.7638 45.5845 26.1109 44.7511 26.5257 43.9588L23.8779 40.2519L29.2519 34.8779L32.9588 37.5257C33.7511 37.1108 34.5845 36.7638 35.4513 36.4923L36.2 32Z" stroke="#001F49" stroke-width="2"/>
<circle id="Ellipse 9" cx="40" cy="51" r="7" stroke="#001F49" stroke-width="2"/>
</g>
<defs>
<clipPath id="clip0_328_7209">
<rect width="80" height="80" fill="white"/>
</clipPath>
</defs>
</svg>
