<svg width="45" height="57" viewBox="0 0 45 57" fill="none" xmlns="http://www.w3.org/2000/svg">
<path d="M1.25 1.25H35.1893L43.75 9.81066V55.75H1.25V1.25Z" stroke="#001F49" stroke-width="1.5"/>
<path d="M17.2675 18.5H15.6995L9.85953 10.74V18.5H8.01953V7.30005H9.58753L15.4275 15.092V7.30005H17.2675V18.5ZM19.0275 12.9C18.4409 12.3667 18.1475 11.6734 18.1475 10.82C18.1475 9.96672 18.4409 9.27872 19.0275 8.75605C19.6249 8.23338 20.3822 7.97205 21.2995 7.97205C22.2169 7.97205 22.9689 8.23338 23.5555 8.75605C24.1529 9.27872 24.4515 9.96672 24.4515 10.82C24.4515 11.6734 24.1529 12.3667 23.5555 12.9C22.9689 13.4227 22.2169 13.684 21.2995 13.684C20.3822 13.684 19.6249 13.4227 19.0275 12.9ZM19.8595 10.82C19.8595 11.236 19.9982 11.572 20.2755 11.828C20.5529 12.0734 20.8942 12.196 21.2995 12.196C21.7155 12.196 22.0569 12.0734 22.3235 11.828C22.5902 11.572 22.7235 11.236 22.7235 10.82C22.7235 10.4147 22.5849 10.0894 22.3075 9.84405C22.0409 9.58805 21.7049 9.46005 21.2995 9.46005C20.8942 9.46005 20.5529 9.58805 20.2755 9.84405C19.9982 10.0894 19.8595 10.4147 19.8595 10.82ZM18.7395 16.164V14.452H23.8435V16.164H18.7395Z" fill="#001F49"/>
<path d="M7.5 25.5H37.5" stroke="#001F49" stroke-width="1.5"/>
<path d="M7.5 32.5H37.5" stroke="#001F49" stroke-width="1.5"/>
<path d="M7.5 39.5H37.5" stroke="#001F49" stroke-width="1.5"/>
<path d="M7.5 46.5H24.5" stroke="#001F49" stroke-width="1.5"/>
</svg>
