<svg width="80" height="80" viewBox="0 0 80 80" fill="none" xmlns="http://www.w3.org/2000/svg">
<path d="M1 29H79M1 29V77C1 78.1046 1.89543 79 3 79H77C78.1046 79 79 78.1046 79 77V29M1 29H40M1 29V15C1 13.8954 1.89543 13 3 13H38C39.1046 13 40 13.8954 40 15M79 29H40M79 29V15C79 13.8954 78.1046 13 77 13H42C40.8954 13 40 13.8954 40 15M40 29V15M56 13V3C56 1.89543 55.1046 1 54 1H25C23.8954 1 23 1.89543 23 3V13M27 56H53M16 29H25V33H16V29ZM55 29H64V33H55V29ZM27.168 60C25.6249 63.5318 22.1007 66 18.0001 66C14.2987 66 11.0669 63.989 9.33789 61H19.0002L22.0002 56L19.0002 51H9.33789C11.0669 48.011 14.2987 46 18.0001 46C22.1007 46 25.6249 48.4682 27.168 52H52.832C54.3751 48.4682 57.8993 46 61.9999 46C65.7013 46 68.9331 48.011 70.6621 51H60.9998L57.9998 56L60.9998 61H70.6621C68.9331 63.989 65.7013 66 61.9999 66C57.8993 66 54.3751 63.5318 52.832 60H27.168Z" stroke="#001F49" stroke-width="2"/>
</svg>
