<svg width="57" height="56" viewBox="0 0 57 56" fill="none" xmlns="http://www.w3.org/2000/svg">
<path id="Vector" d="M28.5312 0C22.818 0 17.4967 1.69921 13.0661 4.63953C12.9204 4.73668 12.8193 4.88773 12.7849 5.05945C12.7506 5.23118 12.7858 5.40952 12.883 5.55523C12.9801 5.70095 13.1312 5.8021 13.3029 5.83645C13.4746 5.87079 13.653 5.83552 13.7987 5.73837C18.0235 2.93459 23.0781 1.30233 28.5312 1.30233C43.2837 1.30233 55.2289 13.2476 55.2289 28C55.2289 42.7524 43.2837 54.6977 28.5312 54.6977C13.7788 54.6977 1.83356 42.7524 1.83356 28C1.83356 21.3072 4.27982 15.2046 8.34519 10.5203V16.9302C8.34397 17.0165 8.35991 17.1022 8.39209 17.1823C8.42427 17.2623 8.47204 17.3352 8.53262 17.3967C8.59321 17.4581 8.66541 17.5069 8.74502 17.5402C8.82463 17.5735 8.91006 17.5907 8.99636 17.5907C9.08265 17.5907 9.16809 17.5735 9.2477 17.5402C9.3273 17.5069 9.3995 17.4581 9.46009 17.3967C9.52067 17.3352 9.56844 17.2623 9.60062 17.1823C9.6328 17.1022 9.64874 17.0165 9.64752 16.9302V9.11628C9.6475 8.94359 9.57889 8.77797 9.45678 8.65586C9.33467 8.53374 9.16905 8.46513 8.99636 8.46512H1.1824C1.16206 8.46416 1.14169 8.46416 1.12136 8.46512C0.948656 8.47321 0.786246 8.54958 0.669854 8.67742C0.553461 8.80526 0.49262 8.9741 0.500716 9.1468C0.508811 9.3195 0.585179 9.48191 0.71302 9.5983C0.840861 9.7147 1.0097 9.77554 1.1824 9.76744H7.2667C3.06761 14.6646 0.531239 21.0459 0.531239 28C0.531239 43.4563 13.075 56 28.5312 56C43.9875 56 56.5312 43.4563 56.5312 28C56.5312 12.5437 43.9875 0 28.5312 0ZM41.5952 9.76744C40.2722 9.76744 38.9406 10.2854 37.9324 11.2936L29.7725 19.657L27.4324 18.9041C27.3285 18.8718 27.2183 18.8661 27.1116 18.8874C27.005 18.9088 26.9054 18.9565 26.8219 19.0262L23.5661 21.6308C23.4928 21.6875 23.4325 21.7591 23.3891 21.8409C23.3457 21.9228 23.3203 22.0129 23.3145 22.1054C23.3087 22.1978 23.3228 22.2904 23.3556 22.377C23.3885 22.4636 23.4394 22.5422 23.5051 22.6076L26.9644 26.0669L16.8307 36.3634L15.04 35.8343C14.9106 35.7962 14.7726 35.7993 14.645 35.843C14.5174 35.8868 14.4066 35.9691 14.3278 36.0785L10.4208 41.2878C10.3258 41.4135 10.2797 41.5694 10.2909 41.7266C10.3022 41.8837 10.37 42.0315 10.4818 42.1424L14.3888 46.0494C14.4998 46.1613 14.6475 46.2291 14.8047 46.2403C14.9618 46.2515 15.1177 46.2054 15.2434 46.1105L20.6766 42.1831C20.7865 42.1003 20.8674 41.9849 20.9076 41.8533C20.9478 41.7216 20.9453 41.5807 20.9004 41.4506L20.3714 39.8837L30.4847 29.5872L33.9237 33.0262C33.989 33.0918 34.0676 33.1428 34.1542 33.1756C34.2408 33.2085 34.3334 33.2225 34.4259 33.2167C34.5183 33.2109 34.6085 33.1855 34.6903 33.1421C34.7721 33.0987 34.8438 33.0384 34.9004 32.9651L37.5051 29.7093C37.5713 29.624 37.6153 29.5235 37.6331 29.4169C37.6509 29.3104 37.6418 29.201 37.6068 29.0988L36.8743 26.7587L45.2376 18.5988C47.2856 16.6006 47.2541 13.3101 45.2376 11.2936C44.2294 10.2854 42.9182 9.76744 41.5952 9.76744ZM41.5952 11.0698C42.5813 11.0698 43.5608 11.4482 44.3219 12.2093C45.8441 13.7315 45.8559 16.1661 44.3219 17.6628L35.6737 26.1076C35.5863 26.1929 35.5247 26.3012 35.4959 26.4199C35.4671 26.5387 35.4723 26.6631 35.5109 26.7791L36.2841 29.1599L34.351 31.5814L24.9498 22.1802L27.351 20.2674L29.7522 21.0203C29.8681 21.0589 29.9925 21.0641 30.1113 21.0354C30.23 21.0066 30.3383 20.945 30.4237 20.8576L38.8685 12.2093C39.6278 11.4565 40.6145 11.0698 41.5952 11.0698ZM39.5196 14.3256C39.3738 14.3413 39.2376 14.4059 39.133 14.5087L33.2725 20.3692C33.2111 20.4306 33.1623 20.5036 33.129 20.5839C33.0958 20.6642 33.0786 20.7503 33.0786 20.8372C33.0786 20.9241 33.0957 21.0102 33.129 21.0905C33.1623 21.1708 33.211 21.2438 33.2725 21.3053C33.334 21.3667 33.4069 21.4155 33.4872 21.4487C33.5675 21.482 33.6536 21.4991 33.7405 21.4991C33.8275 21.4991 33.9135 21.482 33.9938 21.4487C34.0741 21.4155 34.1471 21.3667 34.2086 21.3052L40.069 15.4448C40.1714 15.3495 40.2403 15.2238 40.2656 15.0863C40.291 14.9488 40.2714 14.8067 40.2098 14.6812C40.1482 14.5557 40.0478 14.4533 39.9235 14.3893C39.7992 14.3252 39.6576 14.3029 39.5196 14.3256ZM41.4731 16.2791C41.3273 16.2948 41.191 16.3594 41.0865 16.4622L35.226 22.3227C35.1645 22.3841 35.1158 22.4571 35.0825 22.5374C35.0492 22.6177 35.0321 22.7038 35.0321 22.7907C35.0321 22.8776 35.0492 22.9637 35.0825 23.044C35.1158 23.1243 35.1645 23.1973 35.226 23.2588C35.2874 23.3202 35.3604 23.369 35.4407 23.4022C35.521 23.4355 35.6071 23.4526 35.694 23.4526C35.7809 23.4526 35.867 23.4355 35.9473 23.4022C36.0276 23.3689 36.1006 23.3202 36.1621 23.2587L42.0225 17.3983C42.1248 17.303 42.1938 17.1773 42.2191 17.0398C42.2445 16.9022 42.2249 16.7602 42.1633 16.6347C42.1017 16.5092 42.0013 16.4068 41.877 16.3428C41.7527 16.2787 41.6111 16.2564 41.4731 16.2791ZM27.8801 26.9826L29.569 28.6715L19.1708 39.2326C19.0869 39.3201 19.0291 39.4294 19.0039 39.548C18.9787 39.6667 18.9872 39.79 19.0283 39.9041L19.5167 41.3895L14.9382 44.7267L11.8248 41.6134L15.101 37.218L16.851 37.7267C16.9659 37.7588 17.0874 37.7586 17.2022 37.7264C17.3171 37.6941 17.4208 37.6308 17.5022 37.5436L27.8801 26.9826Z" fill="#001F49"/>
</svg>
