<svg width="40" height="40" viewBox="0 0 40 40" fill="none" xmlns="http://www.w3.org/2000/svg">
<rect width="40" height="40" rx="20" fill="white"/>
<path d="M22.5 21.5625L28 20.5M12 20.5L17.5 21.5625M14 28H26C27.1046 28 28 27.1046 28 26V17C28 15.8954 27.1046 15 26 15H14C12.8954 15 12 15.8954 12 17V26C12 27.1046 12.8954 28 14 28ZM18.5 23H21.5C22.0523 23 22.5 22.5523 22.5 22V21C22.5 20.4477 22.0523 20 21.5 20H18.5C17.9477 20 17.5 20.4477 17.5 21V22C17.5 22.5523 17.9477 23 18.5 23ZM23.5 15H16.5C16.5 13.3431 17.8431 12 19.5 12H20.5C22.1569 12 23.5 13.3431 23.5 15Z" stroke="#001F49"/>
</svg>
