<svg width="78" height="56" viewBox="0 0 78 56" fill="none" xmlns="http://www.w3.org/2000/svg">
<g id="Vector">
<path d="M38.827 38.5553C38.8769 38.5272 38.9204 38.4891 38.9549 38.4434C42.2115 35.1933 44.0509 30.7873 44.0719 26.1865C44.0929 21.5856 42.2937 17.163 39.0668 13.8834C39.0342 13.8369 38.9966 13.794 38.9549 13.7555L38.827 13.6915C38.8313 13.6704 38.8313 13.6487 38.827 13.6276C35.5689 10.4159 31.1778 8.61547 26.603 8.61547C22.0281 8.61547 17.637 10.4159 14.3789 13.6276C14.3568 13.639 14.3376 13.6554 14.323 13.6755L14.251 13.7315C14.2093 13.77 14.1718 13.8129 14.1391 13.8594C12.5175 15.4805 11.2312 17.405 10.3534 19.5232C9.47559 21.6414 9.02361 23.9117 9.02324 26.2045C9.02249 30.8352 10.8613 35.2764 14.1351 38.5513C17.4089 41.8262 21.8496 43.6664 26.4802 43.6672C31.1108 43.6679 35.5521 41.8291 38.827 38.5553ZM14.7147 26.8909C14.5559 24.5094 15.1172 22.1351 16.3256 20.0768C17.5339 18.0184 19.3335 16.3712 21.4904 15.3491C23.6474 14.327 26.0619 13.9774 28.4201 14.3457C30.7784 14.7139 32.9713 15.7831 34.7139 17.4141C36.4565 19.0452 37.6682 21.1627 38.1914 23.4915C38.7147 25.8202 38.5253 28.2525 37.648 30.4723C36.7706 32.692 35.2458 34.5965 33.2718 35.9382C31.2978 37.2799 28.9658 37.9968 26.579 37.9957C23.563 37.9905 20.6612 36.8414 18.4593 34.7804C16.2574 32.7195 14.9192 29.9 14.7147 26.8909ZM27.3785 41.9371V39.5387C30.4027 39.357 33.2779 38.163 35.5411 36.1489L37.22 37.8278C34.5158 40.2981 31.0364 41.7509 27.3785 41.9371ZM38.3473 36.7325L36.6684 35.0536C38.6826 32.7903 39.8766 29.9152 40.0582 26.8909H42.4566C42.2704 30.5489 40.8176 34.0282 38.3473 36.7325ZM40.0582 25.292C39.8766 22.2701 38.6825 19.3974 36.6684 17.1373L38.3473 15.4584C40.806 18.164 42.2474 21.6404 42.4246 25.292H40.0582ZM35.5411 16.026C33.2799 14.0086 30.4036 12.8141 27.3785 12.6362V10.2378C31.0363 10.4217 34.5172 11.8683 37.228 14.3311L35.5411 16.026ZM25.7795 12.6682C22.7607 12.8371 19.8873 14.0203 17.6248 16.026L15.9459 14.3471C18.6504 11.8843 22.1263 10.4374 25.7795 10.2538V12.6682ZM14.8426 15.4584L16.5295 17.1373C14.5122 19.3954 13.3176 22.2692 13.1398 25.292H10.7413C10.9291 21.6382 12.3786 18.1628 14.8426 15.4584ZM13.1398 26.8909C13.3088 29.9121 14.4918 32.788 16.4976 35.0536L14.8426 36.7325C12.3874 34.0215 10.9466 30.544 10.7653 26.8909H13.1398ZM15.9779 37.8598L17.6568 36.1808C19.9169 38.195 22.7896 39.3891 25.8115 39.5706V41.9691C22.1451 41.7883 18.6565 40.3352 15.9459 37.8598H15.9779Z" fill="#001F49"/>
<path d="M28.106 32.1993C28.9742 32.1958 29.822 31.9359 30.5429 31.4521C31.2638 30.9683 31.8257 30.2823 32.158 29.4802C32.4902 28.6781 32.5781 27.7957 32.4105 26.9439C32.2429 26.092 31.8273 25.3087 31.216 24.6922L28.082 21.5503C27.3274 20.7844 26.3184 20.3215 25.2456 20.2491C24.1728 20.1767 23.1108 20.4999 22.2601 21.1576C21.4095 21.8152 20.8294 22.7618 20.6293 23.8182C20.4293 24.8746 20.6232 25.9677 21.1745 26.8908C21.5423 27.5384 21.5583 27.4824 24.988 30.8882C25.8145 31.7183 26.9347 32.1894 28.106 32.1993ZM22.9893 26.651C22.4592 26.1262 22.1593 25.4123 22.1556 24.6664C22.1518 23.9205 22.4446 23.2037 22.9694 22.6736C23.4941 22.1435 24.208 21.8436 24.9539 21.8398C25.6998 21.8361 26.4167 22.1288 26.9468 22.6536L30.0887 25.7875C30.5275 26.223 30.8098 26.7915 30.8914 27.4044C30.973 28.0172 30.8494 28.6398 30.5398 29.1749C30.2302 29.71 29.7521 30.1276 29.1802 30.3623C28.6083 30.5971 27.9747 30.6358 27.3785 30.4725C26.4431 30.2646 26.3391 30.0008 22.9893 26.651Z" fill="#001F49"/>
<path d="M76.3545 42.7926H52.6659V42.3449C52.6659 42.1329 52.5817 41.9295 52.4318 41.7796C52.2818 41.6297 52.0785 41.5454 51.8665 41.5454C47.4134 41.5454 47.7571 41.5454 47.7092 41.4895C47.6985 41.4728 47.6928 41.4533 47.6928 41.4335C47.6928 41.4137 47.6985 41.3943 47.7092 41.3775C50.6675 37.3197 52.3785 32.4873 52.6327 27.472C52.8868 22.4567 51.6732 17.4761 49.1402 13.14L50.7392 9.35845C51.0171 8.68794 51.0895 7.94995 50.9472 7.23821C50.8048 6.52647 50.4542 5.87309 49.9397 5.36106L45.6945 1.11583C45.1825 0.601378 44.5291 0.250709 43.8173 0.108361C43.1056 -0.0339874 42.3676 0.038408 41.6971 0.316352L37.0681 2.25908C20.3111 -5.29598 0.5 6.96801 0.5 26.1235V48.397C0.504221 49.3979 0.90424 50.3564 1.61273 51.0634C2.32122 51.7704 3.28064 52.1684 4.28153 52.1705H70.8061V55.2005C70.8061 55.4126 70.8903 55.6159 71.0403 55.7658C71.1902 55.9158 71.3935 56 71.6056 56H76.4025C76.6145 56 76.8178 55.9158 76.9678 55.7658C77.1177 55.6159 77.2019 55.4126 77.2019 55.2005V43.5921C77.2021 43.483 77.18 43.3749 77.1368 43.2747C77.0937 43.1744 77.0305 43.084 76.9511 43.0091C76.8717 42.9342 76.7778 42.8764 76.6752 42.8391C76.5726 42.8019 76.4634 42.7861 76.3545 42.7926ZM66.0572 46.6861C65.8452 46.6861 65.6418 46.7703 65.4919 46.9202C65.3419 47.0702 65.2577 47.2735 65.2577 47.4856V50.5795H62.1478V47.4856C62.1478 47.2735 62.0635 47.0702 61.9136 46.9202C61.7637 46.7703 61.5603 46.6861 61.3483 46.6861C61.1362 46.6861 60.9329 46.7703 60.783 46.9202C60.633 47.0702 60.5488 47.2735 60.5488 47.4856V50.5795H57.4388V47.4856C57.4388 47.2735 57.3546 47.0702 57.2047 46.9202C57.0547 46.7703 56.8514 46.6861 56.6394 46.6861C56.4273 46.6861 56.224 46.7703 56.074 46.9202C55.9241 47.0702 55.8399 47.2735 55.8399 47.4856V50.5795H52.642V44.3916H70.8061V50.5795H66.8567V47.4856C66.8567 47.2735 66.7724 47.0702 66.6225 46.9202C66.4726 46.7703 66.2692 46.6861 66.0572 46.6861ZM4.28153 50.5715C3.70406 50.5715 3.15012 50.3427 2.74104 49.9351C2.33195 49.5275 2.10107 48.9744 2.09896 48.397V34.9497C3.47927 38.5452 5.61747 41.8014 8.36823 44.497C11.119 47.1926 14.4178 49.2644 18.0405 50.5715H4.28153ZM26.579 50.5715C14.0831 50.5635 2.09896 39.9545 2.09896 26.0915C2.09896 7.23184 22.6455 -4.5125 38.6911 4.87338C41.6746 6.57132 44.2672 8.87836 46.3003 11.6444C48.3334 14.4104 49.7614 17.5735 50.4913 20.9278C51.2213 24.2821 51.237 27.7526 50.5372 31.1133C49.8375 34.4741 48.4381 37.6499 46.43 40.4342C46.2437 40.6881 46.1315 40.9886 46.1058 41.3025C46.0801 41.6163 46.1419 41.9312 46.2844 42.212C46.4269 42.4928 46.6444 42.7286 46.9129 42.8932C47.1814 43.0578 47.4902 43.1448 47.8051 43.1444H51.067V50.5795C33.5984 50.5795 26.9227 50.5955 26.579 50.5635V50.5715ZM44.5592 2.21911L48.7965 6.45634C48.9933 6.64881 49.1492 6.87899 49.255 7.13313C49.3608 7.38726 49.4142 7.66012 49.4121 7.93538C49.4121 8.49501 49.3641 8.48702 48.1009 11.4931C45.7357 8.03827 42.5919 5.18749 38.9229 3.17049L42.2727 1.76341C42.6557 1.60208 43.0783 1.55927 43.4859 1.64051C43.8935 1.72174 44.2673 1.92328 44.5592 2.21911ZM75.555 54.401H72.4051V44.3916H75.603L75.555 54.401Z" fill="#001F49"/>
</g>
</svg>
