<svg width="77" height="57" viewBox="0 0 77 57" fill="none" xmlns="http://www.w3.org/2000/svg">
<path d="M38.327 39.0553C38.3769 39.0272 38.4204 38.9891 38.4549 38.9434C41.7115 35.6933 43.5509 31.2873 43.5719 26.6865C43.5929 22.0856 41.7937 17.663 38.5668 14.3834C38.5342 14.3369 38.4966 14.294 38.4549 14.2555L38.327 14.1915C38.3313 14.1704 38.3313 14.1487 38.327 14.1276C35.0689 10.9159 30.6778 9.11547 26.103 9.11547C21.5281 9.11547 17.137 10.9159 13.8789 14.1276C13.8568 14.139 13.8376 14.1554 13.823 14.1755L13.751 14.2315C13.7093 14.27 13.6718 14.3129 13.6391 14.3594C12.0175 15.9805 10.7312 17.905 9.85337 20.0232C8.97559 22.1414 8.52361 24.4117 8.52324 26.7045C8.52249 31.3352 10.3613 35.7764 13.6351 39.0513C16.9089 42.3262 21.3496 44.1664 25.9802 44.1672C30.6108 44.1679 35.0521 42.3291 38.327 39.0553ZM14.2147 27.3909C14.0559 25.0094 14.6172 22.6351 15.8256 20.5768C17.0339 18.5184 18.8335 16.8712 20.9904 15.8491C23.1474 14.827 25.5619 14.4774 27.9201 14.8457C30.2784 15.2139 32.4713 16.2831 34.2139 17.9141C35.9565 19.5452 37.1682 21.6627 37.6914 23.9915C38.2147 26.3202 38.0253 28.7525 37.148 30.9723C36.2706 33.192 34.7458 35.0965 32.7718 36.4382C30.7978 37.7799 28.4658 38.4968 26.079 38.4957C23.063 38.4905 20.1612 37.3414 17.9593 35.2804C15.7574 33.2195 14.4192 30.4 14.2147 27.3909ZM26.8785 42.4371V40.0387C29.9027 39.857 32.7779 38.663 35.0411 36.6489L36.72 38.3278C34.0158 40.7981 30.5364 42.2509 26.8785 42.4371ZM37.8473 37.2325L36.1684 35.5536C38.1826 33.2903 39.3766 30.4152 39.5582 27.3909H41.9566C41.7704 31.0489 40.3176 34.5282 37.8473 37.2325ZM39.5582 25.792C39.3766 22.7701 38.1825 19.8974 36.1684 17.6373L37.8473 15.9584C40.306 18.664 41.7474 22.1404 41.9246 25.792H39.5582ZM35.0411 16.526C32.7799 14.5086 29.9036 13.3141 26.8785 13.1362V10.7378C30.5363 10.9217 34.0172 12.3683 36.728 14.8311L35.0411 16.526ZM25.2795 13.1682C22.2607 13.3371 19.3873 14.5203 17.1248 16.526L15.4459 14.8471C18.1504 12.3843 21.6263 10.9374 25.2795 10.7538V13.1682ZM14.3426 15.9584L16.0295 17.6373C14.0122 19.8954 12.8176 22.7692 12.6398 25.792H10.2413C10.4291 22.1382 11.8786 18.6628 14.3426 15.9584ZM12.6398 27.3909C12.8088 30.4121 13.9918 33.288 15.9976 35.5536L14.3426 37.2325C11.8874 34.5215 10.4466 31.044 10.2653 27.3909H12.6398ZM15.4779 38.3598L17.1568 36.6808C19.4169 38.695 22.2896 39.8891 25.3115 40.0706V42.4691C21.6451 42.2883 18.1565 40.8352 15.4459 38.3598H15.4779Z" fill="#001F49"/>
<path d="M27.606 32.6993C28.4742 32.6958 29.322 32.4359 30.0429 31.9521C30.7638 31.4683 31.3257 30.7823 31.658 29.9802C31.9902 29.1781 32.0781 28.2957 31.9105 27.4439C31.7429 26.592 31.3273 25.8087 30.716 25.1922L27.582 22.0503C26.8274 21.2844 25.8184 20.8215 24.7456 20.7491C23.6728 20.6767 22.6108 20.9999 21.7601 21.6576C20.9095 22.3152 20.3294 23.2618 20.1293 24.3182C19.9293 25.3746 20.1232 26.4677 20.6745 27.3908C21.0423 28.0384 21.0583 27.9824 24.488 31.3882C25.3145 32.2183 26.4347 32.6894 27.606 32.6993ZM22.4893 27.151C21.9592 26.6262 21.6593 25.9123 21.6556 25.1664C21.6518 24.4205 21.9446 23.7037 22.4694 23.1736C22.9941 22.6435 23.708 22.3436 24.4539 22.3398C25.1998 22.3361 25.9167 22.6288 26.4468 23.1536L29.5887 26.2875C30.0275 26.723 30.3098 27.2915 30.3914 27.9044C30.473 28.5172 30.3494 29.1398 30.0398 29.6749C29.7302 30.21 29.2521 30.6276 28.6802 30.8623C28.1083 31.0971 27.4747 31.1358 26.8785 30.9725C25.9431 30.7646 25.8391 30.5008 22.4893 27.151Z" fill="#001F49"/>
<path d="M75.8545 43.2926H52.1659V42.8449C52.1659 42.6329 52.0817 42.4295 51.9318 42.2796C51.7818 42.1297 51.5785 42.0454 51.3665 42.0454C46.9134 42.0454 47.2571 42.0454 47.2092 41.9895C47.1985 41.9728 47.1928 41.9533 47.1928 41.9335C47.1928 41.9137 47.1985 41.8943 47.2092 41.8775C50.1675 37.8197 51.8785 32.9873 52.1327 27.972C52.3868 22.9567 51.1732 17.9761 48.6402 13.64L50.2392 9.85845C50.5171 9.18794 50.5895 8.44995 50.4472 7.73821C50.3048 7.02647 49.9542 6.37309 49.4397 5.86106L45.1945 1.61583C44.6825 1.10138 44.0291 0.750709 43.3173 0.608361C42.6056 0.466013 41.8676 0.538408 41.1971 0.816352L36.5681 2.75908C19.8111 -4.79598 0 7.46801 0 26.6235V48.897C0.00422099 49.8979 0.40424 50.8564 1.11273 51.5634C1.82122 52.2704 2.78064 52.6684 3.78153 52.6705H70.3061V55.7005C70.3061 55.9126 70.3903 56.1159 70.5403 56.2658C70.6902 56.4158 70.8935 56.5 71.1056 56.5H75.9025C76.1145 56.5 76.3178 56.4158 76.4678 56.2658C76.6177 56.1159 76.7019 55.9126 76.7019 55.7005V44.0921C76.7021 43.983 76.68 43.8749 76.6368 43.7747C76.5937 43.6744 76.5305 43.584 76.4511 43.5091C76.3717 43.4342 76.2778 43.3764 76.1752 43.3391C76.0726 43.3019 75.9634 43.2861 75.8545 43.2926ZM65.5572 47.1861C65.3452 47.1861 65.1418 47.2703 64.9919 47.4202C64.8419 47.5702 64.7577 47.7735 64.7577 47.9856V51.0795H61.6478V47.9856C61.6478 47.7735 61.5635 47.5702 61.4136 47.4202C61.2637 47.2703 61.0603 47.1861 60.8483 47.1861C60.6362 47.1861 60.4329 47.2703 60.283 47.4202C60.133 47.5702 60.0488 47.7735 60.0488 47.9856V51.0795H56.9388V47.9856C56.9388 47.7735 56.8546 47.5702 56.7047 47.4202C56.5547 47.2703 56.3514 47.1861 56.1394 47.1861C55.9273 47.1861 55.724 47.2703 55.574 47.4202C55.4241 47.5702 55.3399 47.7735 55.3399 47.9856V51.0795H52.142V44.8916H70.3061V51.0795H66.3567V47.9856C66.3567 47.7735 66.2724 47.5702 66.1225 47.4202C65.9726 47.2703 65.7692 47.1861 65.5572 47.1861ZM3.78153 51.0715C3.20406 51.0715 2.65012 50.8427 2.24104 50.4351C1.83195 50.0275 1.60107 49.4744 1.59896 48.897V35.4497C2.97927 39.0452 5.11747 42.3014 7.86823 44.997C10.619 47.6926 13.9178 49.7644 17.5405 51.0715H3.78153ZM26.079 51.0715C13.5831 51.0635 1.59896 40.4545 1.59896 26.5915C1.59896 7.73184 22.1455 -4.0125 38.1911 5.37338C41.1746 7.07132 43.7672 9.37836 45.8003 12.1444C47.8334 14.9104 49.2614 18.0735 49.9913 21.4278C50.7213 24.7821 50.737 28.2526 50.0372 31.6133C49.3375 34.9741 47.9381 38.1499 45.93 40.9342C45.7437 41.1881 45.6315 41.4886 45.6058 41.8025C45.5801 42.1163 45.6419 42.4312 45.7844 42.712C45.9269 42.9928 46.1444 43.2286 46.4129 43.3932C46.6814 43.5578 46.9902 43.6448 47.3051 43.6444H50.567V51.0795C33.0984 51.0795 26.4227 51.0955 26.079 51.0635V51.0715ZM44.0592 2.71911L48.2965 6.95634C48.4933 7.14881 48.6492 7.37899 48.755 7.63313C48.8608 7.88726 48.9142 8.16012 48.9121 8.43538C48.9121 8.99501 48.8641 8.98702 47.6009 11.9931C45.2357 8.53827 42.0919 5.68749 38.4229 3.67049L41.7727 2.26341C42.1557 2.10208 42.5783 2.05927 42.9859 2.14051C43.3935 2.22174 43.7673 2.42328 44.0592 2.71911ZM75.055 54.901H71.9051V44.8916H75.103L75.055 54.901Z" fill="#001F49"/>
</svg>
