<svg width="56" height="56" viewBox="0 0 56 56" fill="none" xmlns="http://www.w3.org/2000/svg">
<path id="Vector" fill-rule="evenodd" clip-rule="evenodd" d="M29.8046 50.6672V49.854C28.1666 47.5171 27.2051 44.6712 27.2051 41.601C27.2051 38.5308 28.1666 35.6848 29.8046 33.348V5.32966C29.8046 3.27284 28.1191 1.58704 26.0621 1.58704H23.0859L22.2849 4.07498C21.8562 5.40632 20.647 6.2875 19.252 6.2875H12.1399C10.7451 6.2875 9.53582 5.40632 9.10712 4.07498L8.3061 1.58704H5.32991C3.27266 1.58704 1.58698 3.27297 1.58698 5.32966V50.6672C1.58698 52.7264 3.27135 54.4096 5.32991 54.4096H26.062C28.1192 54.4096 29.8046 52.7242 29.8046 50.6672ZM31.299 51.6562C30.8287 54.1394 28.6378 55.9967 26.0621 55.9967H5.32997C2.39553 55.9967 0 53.6002 0 50.6672V5.32966C0 2.39727 2.39702 0 5.32997 0H26.0621C28.9948 0 31.3917 2.39727 31.3917 5.32966V31.452C36.9533 25.8159 46.1344 25.7757 51.7803 31.4217C57.4024 37.0438 57.4024 46.1582 51.7803 51.7803C46.1265 57.4341 36.9944 57.42 31.299 51.6562ZM21.4237 1.58704C20.9202 3.15106 20.7543 4.70045 19.252 4.70045H12.1399C10.6204 4.70045 10.4438 3.06413 9.96826 1.58704H21.4237ZM7.59774 51.8901C6.55303 51.8901 6.55303 50.303 7.59774 50.303H23.7944C24.8391 50.303 24.8391 51.8901 23.7944 51.8901H7.59774ZM45.2618 29.3228C46.384 30.764 47.149 32.6943 47.6398 34.5782C49.0544 34.2521 50.3125 33.8167 51.3551 33.2987C49.7518 31.4163 47.6342 30.0292 45.2618 29.3228ZM54.3855 40.8075C54.2456 38.5175 53.504 36.3902 52.3169 34.5814C51.108 35.2159 49.6379 35.7412 47.9872 36.1214C48.2659 37.5773 48.4371 39.1558 48.4789 40.8075H54.3855ZM51.3551 49.9033C50.3125 49.3853 49.0544 48.9498 47.6398 48.6238C47.1488 50.5078 46.3841 52.4377 45.2618 53.8792C47.6342 53.1728 49.7518 51.7856 51.3551 49.9033ZM52.3168 48.6205C53.5039 46.8118 54.2455 44.6844 54.3854 42.3944H48.4788C48.437 44.0461 48.2658 45.6247 47.9871 47.0805C49.6378 47.4605 51.1079 47.986 52.3168 48.6205ZM37.94 53.879C36.8175 52.4383 36.0527 50.5073 35.5619 48.6238C34.1473 48.9499 32.8892 49.3853 31.8467 49.9033C33.4499 51.7856 35.5675 53.1727 37.94 53.879ZM28.8164 42.3944H34.7229C34.7647 44.0461 34.9358 45.6247 35.2146 47.0805C33.564 47.4605 32.0939 47.986 30.8849 48.6205C29.698 46.8118 28.9563 44.6844 28.8164 42.3944ZM31.8467 33.2986C32.8894 33.8166 34.1473 34.2521 35.5619 34.5782C36.0526 32.6947 36.8177 30.7635 37.94 29.3229C35.5675 30.0292 33.4499 31.4163 31.8467 33.2986ZM30.8851 34.5814C32.094 35.2159 33.5639 35.7412 35.2146 36.1214C34.9359 37.5773 34.7647 39.1558 34.7229 40.8075H28.8164C28.9563 38.5175 29.6979 36.3902 30.8851 34.5814ZM37.1181 34.881C39.9936 35.3433 43.2082 35.3436 46.0837 34.881C43.9397 26.7951 39.2621 26.7951 37.1181 34.881ZM46.8916 40.8075C46.8508 39.2575 46.6916 37.7825 46.4339 36.4276C43.3174 36.9439 39.8844 36.9439 36.768 36.4276C36.5103 37.7825 36.3511 39.2575 36.3103 40.8075H46.8916ZM46.0838 48.3209C43.2084 47.8583 39.9935 47.8586 37.1181 48.3209C39.4151 56.9829 44.0943 55.8242 46.0838 48.3209ZM46.4339 46.7741C46.6916 45.4194 46.8508 43.9444 46.8916 42.3944H36.3103C36.3511 43.9444 36.5103 45.4194 36.768 46.7743C39.8848 46.258 43.3171 46.2581 46.4339 46.7741ZM37.7203 17.9428C40.1367 15.9839 43.0665 15.9829 45.4809 17.9429C46.2867 18.5971 47.2836 17.3689 46.4788 16.7155C43.4739 14.276 39.7272 14.2756 36.7223 16.7154C35.9173 17.369 36.9154 18.5974 37.7203 17.9428ZM34.7925 13.8213C39.0167 10.3506 44.186 10.3501 48.4089 13.8213C49.2098 14.4795 50.2139 13.2583 49.413 12.6C44.5965 8.64084 38.6048 8.64071 33.7883 12.6C32.9874 13.2585 33.9918 14.4797 34.7925 13.8213ZM41.6006 19.4648C39.5513 19.4648 39.5512 22.5717 41.6006 22.5717C43.6501 22.5717 43.6499 19.4648 41.6006 19.4648Z" fill="#001F49"/>
</svg>
