<svg width="40" height="40" viewBox="0 0 40 40" fill="none" xmlns="http://www.w3.org/2000/svg">
<rect width="40" height="40" rx="20" fill="white"/>
<path d="M12.6382 17.2401C11.6842 15.7871 11.9705 13.8621 13.281 12.6915L14.6666 11.4737C15.1493 11.0494 15.8846 11.0968 16.3089 11.5796L18.6974 14.2972C19.1217 14.78 19.0743 15.5152 18.5916 15.9395L17.3769 17.007L17.0353 17.3073L17.3019 17.6757C18.0182 18.6655 18.7671 19.6369 19.4799 20.4478C20.1926 21.2588 21.0598 22.1262 21.9495 22.9636L22.2807 23.2754L22.6223 22.9751L23.837 21.9075C24.3197 21.4833 25.055 21.5306 25.4792 22.0134L27.8678 24.7311C28.2921 25.2138 28.2447 25.949 27.7619 26.3733L26.368 27.5984L26.3316 27.6289C25.0037 28.7411 23.0866 28.7648 21.7827 27.6446C20.1518 26.2436 18.1345 24.4162 16.753 22.8444C15.3716 21.2726 13.8183 19.0374 12.6382 17.2401Z" stroke="#001F49" stroke-linecap="round"/>
</svg>
