<svg width="40" height="40" viewBox="0 0 40 40" fill="none" xmlns="http://www.w3.org/2000/svg">
<rect width="40" height="40" rx="20" fill="white"/>
<path d="M26 18C26 19.4278 25.2719 21.258 24.2535 23.0949C23.246 24.9123 21.9986 26.6598 21.0483 27.9007C20.5081 28.6061 19.4919 28.6061 18.9517 27.9007C18.0014 26.6598 16.754 24.9123 15.7465 23.0949C14.7281 21.258 14 19.4278 14 18C14 15.8611 14.6891 14.2445 15.759 13.1644C16.8307 12.0825 18.3225 11.5 20 11.5C21.6775 11.5 23.1693 12.0825 24.241 13.1644C25.3109 14.2445 26 15.8611 26 18Z" stroke="#001F49"/>
<circle cx="20" cy="17.5" r="3" stroke="#001F49"/>
</svg>
