<svg width="80" height="80" viewBox="0 0 80 80" fill="none" xmlns="http://www.w3.org/2000/svg">
<path d="M50.8766 23.5C49.6222 10.8667 38.9634 1 26 1C12.1929 1 1 12.1929 1 26C1 39.8071 12.1929 51 26 51C28.2483 51 30.4273 50.7032 32.5 50.1467M46 26C46 14.9543 37.0457 6 26 6C14.9543 6 6 14.9543 6 26C6 37.0457 14.9543 46 26 46C29.6429 46 33.0583 45.0261 36 43.3244M21.0909 15V32.4483M21.0909 15H28.8182C32.2323 15 35 17.8407 35 21.3448C35 24.849 32.2323 27.6897 28.8182 27.6897H21.0909V15ZM21.0909 32.4483V38M21.0909 32.4483H18M21.0909 32.4483H27.2727M46.6546 38L67.5613 50.0705M44.1237 42.3837L65.0304 54.4541M41.3982 47.1045L62.3048 59.175M67.5 33C63.3579 33 60 25.8366 60 17C60 8.16344 63.3579 1 67.5 1C71.6421 1 75 8.16344 75 17C75 21.018 74.3058 24.69 73.1592 27.5M64.2249 21.6027L51.3353 23.3275C48.876 23.6566 46.7087 25.1081 45.4681 27.2568L27.3975 58.556C26.2929 60.4692 26.9484 62.9156 28.8616 64.0202L53.6306 78.3205C55.5437 79.4251 57.9901 78.7696 59.0947 76.8564L77.1653 45.5572C78.4059 43.4085 78.5792 40.8057 77.6346 38.5114L72.6835 26.4862C71.3002 23.1264 67.8263 21.1207 64.2249 21.6027ZM35.7321 60.9182L53.1746 70.9887C54.1312 71.541 55.3544 71.2132 55.9067 70.2567L58.1897 66.3023C58.742 65.3457 58.4143 64.1225 57.4577 63.5702L40.0151 53.4998C39.0585 52.9475 37.8354 53.2752 37.2831 54.2318L35 58.1862C34.4477 59.1428 34.7755 60.366 35.7321 60.9182ZM66.9365 35.3071C65.7072 37.4363 62.9846 38.1658 60.8553 36.9365C58.7261 35.7072 57.9966 32.9846 59.2259 30.8553C60.4552 28.7261 63.1778 27.9966 65.3071 29.2259C67.4363 30.4552 68.1658 33.1778 66.9365 35.3071Z" stroke="#001F49" stroke-width="2"/>
</svg>
