<svg width="80" height="80" viewBox="0 0 80 80" fill="none" xmlns="http://www.w3.org/2000/svg">
<g clip-path="url(#clip0_2020_3250)">
<path d="M54.2489 46C56.6007 42.9581 58 39.1425 58 35C58 25.0589 49.9411 17 40 17C30.0589 17 22 25.0589 22 35C22 39.1425 23.3993 42.9581 25.7511 46M33 54.5L38 59.5L48.5 49M24 54.5L13.2629 70.5724L22.2536 69.4803L25.8032 77.8125L31.6557 66.5M56 54.5L67.3343 70.5724L58.3436 69.4803L54.794 77.8125L48.9415 66.5M58.1054 56.3595C59.2768 55.3655 60.3655 54.2769 61.3595 53.1054L66.0788 55.8301C66.5571 56.1063 67.1687 55.9424 67.4448 55.4641L71.4448 48.5359C71.721 48.0576 71.5571 47.446 71.0788 47.1699L66.3657 44.4487C66.8791 43.0162 67.2791 41.5297 67.5549 40H73C73.5523 40 74 39.5523 74 39V31C74 30.4477 73.5523 30 73 30H67.5549C67.2791 28.4703 66.8791 26.9838 66.3657 25.5512L71.0788 22.8301C71.5571 22.554 71.721 21.9424 71.4448 21.4641L67.4448 14.5359C67.1687 14.0576 66.5571 13.8937 66.0788 14.1699L61.3594 16.8946C60.3655 15.7231 59.2769 14.6345 58.1054 13.6406L60.8302 8.92114C61.1063 8.44285 60.9424 7.83126 60.4641 7.55511L53.5359 3.55511C53.0577 3.27897 52.4461 3.44285 52.1699 3.92114L49.4488 8.63434C48.0162 8.1209 46.5297 7.72089 45 7.44514V2C45 1.44772 44.5523 1 44 1H36C35.4477 1 35 1.44772 35 2V7.44514C33.4703 7.72089 31.9838 8.1209 30.5512 8.63434L27.8301 3.92116C27.5539 3.44287 26.9423 3.27899 26.4641 3.55514L19.5359 7.55514C19.0576 7.83128 18.8937 8.44287 19.1698 8.92116L21.8946 13.6406C20.7231 14.6345 19.6345 15.7231 18.6405 16.8946L13.9212 14.1699C13.4429 13.8937 12.8313 14.0576 12.5551 14.5359L8.55514 21.4641C8.27899 21.9424 8.44287 22.554 8.92116 22.8301L13.6343 25.5513C13.1209 26.9838 12.7209 28.4703 12.4451 30H7C6.44772 30 6 30.4477 6 31V39C6 39.5523 6.44772 40 7 40H12.4451C12.7209 41.5297 13.1209 43.0162 13.6343 44.4487L8.92116 47.1699C8.44287 47.446 8.279 48.0576 8.55514 48.5359L12.5551 55.4641C12.8313 55.9424 13.4429 56.1063 13.9212 55.8301L18.6405 53.1054C19.6345 54.2769 20.7232 55.3655 21.8946 56.3595M56 53C56 61.8366 48.8366 69 40 69C31.1634 69 24 61.8366 24 53C24 44.1634 31.1634 37 40 37C48.8366 37 56 44.1634 56 53Z" stroke="#001F49" stroke-width="2"/>
</g>
<defs>
<clipPath id="clip0_2020_3250">
<rect width="80" height="80" fill="white"/>
</clipPath>
</defs>
</svg>
