<svg width="80" height="80" viewBox="0 0 80 80" fill="none" xmlns="http://www.w3.org/2000/svg">
<path d="M31 5.26147C24.8053 8.55458 20.2799 15.1417 19.2313 23L16 24V29H64V24L60.7687 23C59.7251 15.1794 55.2382 8.61798 49.0893 5.30922M26 23.5H54M40 2H33C31.8954 2 31 2.89543 31 4V15M40 2H47C48.1046 2 49 2.89543 49 4V15M40 2V0M40 2V18M48 54V58L60.9828 63.9013C63.1248 64.8749 64.5 67.0106 64.5 69.3635V79H16.5M33 54V58L20.0172 63.9013C17.8752 64.8749 16.5 67.0106 16.5 69.3635V79M16.5 79H1V72.3635C1 70.0106 2.37522 67.8749 4.51718 66.9013L9.25 64.75M63.5 79H79V72.3544C79 70.0062 77.6302 67.8738 75.4946 66.8975L61.5 60.5M33 57.5455C34.0797 60.7233 36.9931 63 40.4176 63C44.0351 63 47.0821 60.4595 48 57M16 27H11C7.13401 27 4 30.134 4 34V55C4 62.1797 9.8203 68 17 68M25 47H10V39H21M7.87909 27.5C10.5997 23.6916 15.0013 21.1663 20 21.0079M59.5 18C68.6127 18 76 25.6112 76 35M58.5 38C60.9853 38 63 35.9853 63 33.5C63 31.0147 60.9853 29 58.5 29M21 37C18.7909 37 17 35.2091 17 33C17 30.7909 18.7909 29 21 29M59.5 38C61.1667 39.3333 66 41.6 72 40M60.5 21.5C63.6667 21.5 70.6 24.2 73 35M71 50C70.1667 53.1667 66.2 60 57 62M40 57C31 57 20 43.9117 20 29H60C60 43.9117 49 57 40 57ZM72.8921 35.2384L75.2397 35.5337C77.4316 35.8094 78.985 37.8097 78.7093 40.0016L77.7888 47.32C77.5131 49.5119 75.5127 51.0653 73.3209 50.7896L70.9732 50.4943L72.8921 35.2384ZM4 36H2C1.44772 36 1 36.4477 1 37V42C1 42.5523 1.44772 43 2 43H4V36Z" stroke="#001F49" stroke-width="2"/>
</svg>
