<svg width="80" height="80" viewBox="0 0 80 80" fill="none" xmlns="http://www.w3.org/2000/svg">
<g clip-path="url(#clip0_2020_4493)">
<path d="M53 76.7808C48.9339 78.218 44.5583 79 40 79C18.4609 79 1 61.5391 1 40C1 18.4609 18.4609 1 40 1C61.5391 1 79 18.4609 79 40C79 44.7457 78.1524 49.2934 76.6002 53.5M72.9288 48.5C73.6281 45.7832 74 42.935 74 40C74 21.2223 58.7777 6 40 6C21.2223 6 6 21.2223 6 40C6 58.7777 21.2223 74 40 74C42.935 74 45.7832 73.6281 48.5 72.9288M40 37C38.3431 37 37 38.3431 37 40C37 40.8389 37.3443 41.5973 37.8993 42.1417M40 37C41.6569 37 43 38.3431 43 40C43 41.6569 41.6569 43 40 43C39.182 43 38.4405 42.6726 37.8993 42.1417M40 37V23M37.8993 42.1417L32.5 47.541M40 12V18M68 40H62M59.799 20.201L55.5564 24.4436M40 62V68M18 40H12M24.4437 24.4437L20.201 20.201M24.4437 55.5564L20.201 59.7991M56 63L61 68L71 58M79 62C79 71.3888 71.3888 79 62 79C52.6112 79 45 71.3888 45 62C45 52.6112 52.6112 45 62 45C71.3888 45 79 52.6112 79 62Z" stroke="#001F49" stroke-width="2"/>
</g>
<defs>
<clipPath id="clip0_2020_4493">
<rect width="80" height="80" fill="white"/>
</clipPath>
</defs>
</svg>
