<svg width="25" height="25" viewBox="0 0 25 25" fill="none" xmlns="http://www.w3.org/2000/svg">
<g id="Clip path group">
<mask id="mask0_281_1733" style="mask-type:luminance" maskUnits="userSpaceOnUse" x="0" y="0" width="25" height="25">
<g id="clip0_1301_279">
<path id="Vector" d="M24.5703 0.5H0.570312V24.5H24.5703V0.5Z" fill="white"/>
</g>
</mask>
<g mask="url(#mask0_281_1733)">
<g id="Group">
<path id="Vector_2" d="M12.5703 0.5C9.38846 0.5 6.33406 1.76506 4.08594 4.01469C1.83549 6.2652 0.570936 9.31733 0.570312 12.5C0.570312 15.6813 1.83594 18.7357 4.08594 20.9853C6.33406 23.2349 9.38846 24.5 12.5703 24.5C15.7522 24.5 18.8065 23.2349 21.0547 20.9853C23.3047 18.7357 24.5703 15.6813 24.5703 12.5C24.5703 9.3187 23.3047 6.26431 21.0547 4.01469C18.8065 1.76506 15.7522 0.5 12.5703 0.5Z" fill="url(#paint0_linear_281_1733)"/>
<path id="Vector_3" d="M6.00216 12.3733C9.50089 10.8493 11.8334 9.84442 12.9997 9.359C16.3334 7.97283 17.0253 7.73208 17.4772 7.72392C17.5765 7.72234 17.7978 7.74689 17.9422 7.8636C18.0622 7.96206 18.0959 8.09516 18.1128 8.18862C18.1278 8.28202 18.1484 8.4948 18.1316 8.66094C17.9516 10.5585 17.1696 15.1631 16.7721 17.2884C16.6053 18.1876 16.2734 18.4892 15.9528 18.5186C15.2553 18.5827 14.7265 18.058 14.0516 17.6158C12.9959 16.9233 12.3997 16.4924 11.3741 15.8169C10.189 15.0361 10.9578 14.6069 11.6328 13.9057C11.809 13.7221 14.8802 10.9293 14.9384 10.676C14.9459 10.6443 14.9534 10.5262 14.8822 10.464C14.8128 10.4015 14.7096 10.4229 14.6346 10.4398C14.5278 10.4638 12.8422 11.579 9.57213 13.7853C9.09405 14.1142 8.66089 14.2745 8.27092 14.266C7.84338 14.2569 7.0184 14.0238 6.40528 13.8247C5.65528 13.5804 5.05715 13.4512 5.10966 13.0363C5.13591 12.8203 5.43403 12.5992 6.00216 12.3733Z" fill="white"/>
</g>
</g>
</g>
<defs>
<linearGradient id="paint0_linear_281_1733" x1="12.5703" y1="0.5" x2="12.5703" y2="24.5" gradientUnits="userSpaceOnUse">
<stop stop-color="#2AABEE"/>
<stop offset="1" stop-color="#229ED9"/>
</linearGradient>
</defs>
</svg>
