<svg width="56" height="56" viewBox="0 0 56 56" fill="none" xmlns="http://www.w3.org/2000/svg">
<g id="Vector">
<path d="M12.9498 19.0673C16.3233 19.0673 19.0675 16.3227 19.0675 12.9498C19.0675 9.57635 16.3233 6.83175 12.9498 6.83175C9.57626 6.83175 6.83201 9.57635 6.83201 12.9498C6.83201 16.3227 9.57626 19.0673 12.9498 19.0673ZM12.9498 8.23174C15.5511 8.23174 17.6675 10.3481 17.6675 12.9498C17.6675 15.5509 15.5511 17.6673 12.9498 17.6673C10.3484 17.6673 8.23199 15.5509 8.23199 12.9498C8.23199 10.3481 10.3484 8.23174 12.9498 8.23174Z" fill="#001F49"/>
<path d="M2.86172 5.61286C2.70723 5.48776 2.50625 5.43444 2.31109 5.46589C2.1149 5.49733 1.94127 5.61012 1.83361 5.77692C0.962376 7.12495 0.350567 8.59944 0.0156105 10.1608C-0.0260882 10.3549 0.0166358 10.5579 0.133187 10.7186C0.249739 10.8792 0.428838 10.9831 0.626394 11.0036C1.62375 11.1089 2.37569 11.9456 2.37569 12.9498C2.37569 13.954 1.62375 14.7907 0.626394 14.8959C0.428838 14.9165 0.249739 15.0204 0.133187 15.181C0.0166359 15.3416 -0.0260882 15.5447 0.0156105 15.7388C0.350909 17.3001 0.962376 18.7753 1.83361 20.122C1.94161 20.2888 2.1149 20.4015 2.31075 20.433C2.50625 20.4658 2.70689 20.4118 2.86138 20.2867C3.64135 19.6571 4.7638 19.718 5.47267 20.4268C6.18258 21.1364 6.24273 22.2588 5.61281 23.0375C5.48805 23.1919 5.43473 23.3922 5.46618 23.5884C5.49728 23.7839 5.61042 23.9576 5.77721 24.0656C7.12422 24.9365 8.59905 25.5483 10.1607 25.8839C10.2092 25.8942 10.2588 25.8996 10.3077 25.8996C10.454 25.8996 10.5979 25.8538 10.7185 25.7663C10.8792 25.6501 10.9831 25.4703 11.0039 25.2728C11.1088 24.2754 11.9452 23.5235 12.9497 23.5235C13.9539 23.5235 14.7903 24.2754 14.8952 25.2728C14.9161 25.4703 15.02 25.6501 15.1806 25.7663C15.3419 25.8839 15.5456 25.9249 15.7384 25.8839C17.2997 25.5483 18.7746 24.9365 20.1223 24.0656C20.289 23.9576 20.4022 23.7839 20.4333 23.5884C20.4647 23.3922 20.4114 23.1919 20.2867 23.0375C19.6567 22.2582 19.7169 21.1364 20.4264 20.4268C21.137 19.7173 22.2602 19.6571 23.0381 20.2867C23.1929 20.4118 23.3932 20.4658 23.5887 20.433C23.7846 20.4015 23.9579 20.2888 24.0659 20.122C24.9367 18.7753 25.5482 17.3008 25.8835 15.7388C25.9252 15.5447 25.8825 15.3416 25.7659 15.181C25.6494 15.0204 25.4703 14.9165 25.2727 14.8959C24.2754 14.7907 23.5234 13.954 23.5234 12.9498C23.5234 11.9456 24.2754 11.1089 25.2727 11.0036C25.4703 10.9831 25.6494 10.8792 25.7659 10.7186C25.8825 10.5579 25.9252 10.3549 25.8835 10.1608C25.5482 8.59944 24.9367 7.12427 24.0659 5.77692C23.9582 5.61012 23.7846 5.49733 23.5884 5.46589C23.3949 5.43444 23.1926 5.48776 23.0377 5.61286C22.2588 6.24244 21.1367 6.18228 20.4264 5.47272C19.7172 4.76316 19.6571 3.64071 20.2867 2.86211C20.4114 2.70762 20.4647 2.50733 20.4333 2.31114C20.4022 2.11563 20.289 1.942 20.1223 1.834C18.7763 0.963109 17.3014 0.351299 15.7384 0.015659C15.5443 -0.0260397 15.3416 0.0163426 15.1806 0.133236C15.02 0.249445 14.9161 0.429228 14.8952 0.626784C14.7903 1.62414 13.9539 2.37608 12.9497 2.37608C11.9452 2.37608 11.1088 1.62414 11.0039 0.626784C10.9831 0.429228 10.8792 0.249445 10.7185 0.133236C10.5579 0.0170262 10.3555 -0.0246725 10.1607 0.015659C8.59734 0.351299 7.12251 0.963109 5.77687 1.834C5.61042 1.942 5.49728 2.11563 5.46618 2.31182C5.43473 2.50733 5.48805 2.70762 5.61281 2.86211C6.24239 3.64071 6.18224 4.76316 5.47267 5.47272C4.7638 6.18297 3.64066 6.24244 2.86172 5.61286ZM6.46251 6.46255C7.48788 5.43718 7.72235 3.90868 7.1249 2.65293C7.96571 2.17579 8.85642 1.80597 9.78678 1.54826C10.2516 2.86006 11.4985 3.77606 12.9497 3.77606C14.4006 3.77606 15.6478 2.86006 16.1127 1.54826C17.0424 1.80597 17.9338 2.17579 18.7746 2.65293C18.1768 3.90868 18.4112 5.43718 19.4366 6.46255C20.4623 7.48862 21.9908 7.72377 23.2466 7.12495C23.7241 7.96644 24.0939 8.85715 24.3509 9.78683C23.0391 10.2517 22.1234 11.4985 22.1234 12.9498C22.1234 14.401 23.0391 15.6479 24.3509 16.1127C24.0939 17.0424 23.7241 17.9331 23.2466 18.7746C21.9902 18.1758 20.4617 18.4109 19.4366 19.437C18.4112 20.4617 18.1764 21.9902 18.7746 23.2459C17.9327 23.7245 17.0417 24.0943 16.1127 24.3513C15.6475 23.0395 14.4006 22.1235 12.9497 22.1235C11.4985 22.1235 10.2516 23.0395 9.78678 24.3513C8.85745 24.0943 7.96639 23.7238 7.1249 23.2466C7.7227 21.9902 7.48823 20.4617 6.46251 19.437C5.43781 18.4116 3.90931 18.1765 2.65288 18.7746C2.17506 17.9331 1.80524 17.0417 1.54821 16.1127C2.86001 15.6479 3.77567 14.401 3.77567 12.9498C3.77567 11.4992 2.85967 10.2517 1.54821 9.78683C1.80524 8.85784 2.17506 7.96644 2.65288 7.12495C3.90931 7.72309 5.43815 7.48862 6.46251 6.46255Z" fill="#001F49"/>
<path d="M37.3715 28.742C32.6134 28.742 28.7423 32.6132 28.7423 37.3716C28.7423 42.1301 32.6134 46.0012 37.3715 46.0012C42.1296 46.0012 46.0008 42.1301 46.0008 37.3716C46.0008 32.6132 42.1296 28.742 37.3715 28.742ZM37.3715 44.6012C33.3852 44.6012 30.1423 41.3583 30.1423 37.3716C30.1423 33.3849 33.3852 30.142 37.3715 30.142C41.3579 30.142 44.6008 33.3849 44.6008 37.3716C44.6008 41.3583 41.3579 44.6012 37.3715 44.6012Z" fill="#001F49"/>
<path d="M48.004 21.8522C47.9729 21.6567 47.8598 21.483 47.693 21.375C45.754 20.1213 43.6314 19.2409 41.3852 18.7589C41.19 18.7179 40.9877 18.7596 40.8274 18.8765C40.6667 18.9927 40.5628 19.1725 40.542 19.3701C40.3711 20.995 39.008 22.2206 37.3715 22.2206C35.735 22.2206 34.3719 20.995 34.201 19.3701C34.1802 19.1725 34.0763 18.9927 33.9156 18.8765C33.755 18.7603 33.554 18.7193 33.3578 18.7589C31.1116 19.2409 28.989 20.1213 27.0501 21.375C26.8833 21.483 26.7701 21.6567 26.739 21.8522C26.7076 22.0484 26.7609 22.2486 26.8856 22.4031C27.9121 23.6726 27.814 25.5018 26.658 26.6585C25.5014 27.8137 23.6714 27.9115 22.403 26.8861C22.2485 26.761 22.0476 26.7077 21.8524 26.7391C21.6562 26.7706 21.4826 26.8834 21.3749 27.0502C20.1209 28.9902 19.2408 31.1127 18.7588 33.3583C18.7171 33.5524 18.7599 33.7554 18.8764 33.9161C18.993 34.0767 19.1724 34.1806 19.37 34.2011C20.9949 34.3727 22.2202 35.7351 22.2202 37.3716C22.2202 39.0081 20.9949 40.3705 19.37 40.5421C19.1724 40.5626 18.993 40.6665 18.8764 40.8271C18.7599 40.9878 18.7171 41.1908 18.7588 41.3849C19.2408 43.6305 20.1209 45.7531 21.3749 47.6931C21.4826 47.8599 21.6562 47.9727 21.8524 48.0041C22.0476 48.0369 22.2485 47.9829 22.403 47.8571C23.6721 46.8304 25.5014 46.9288 26.658 48.0848C27.814 49.2414 27.9121 51.0707 26.8856 52.3401C26.7609 52.4946 26.7076 52.6949 26.739 52.8911C26.7701 53.0866 26.8833 53.2602 27.0501 53.3682C28.989 54.6219 31.1116 55.5023 33.3578 55.9843C33.5527 56.0239 33.755 55.9829 33.9156 55.8667C34.0763 55.7505 34.1802 55.5707 34.201 55.3731C34.3719 53.7483 35.735 52.5226 37.3715 52.5226C39.008 52.5226 40.3711 53.7483 40.542 55.3731C40.5628 55.5707 40.6667 55.7505 40.8274 55.8667C40.948 55.9542 41.0919 56 41.2382 56C41.2871 56 41.3363 55.9945 41.3852 55.9843C43.6314 55.5023 45.754 54.6219 47.693 53.3682C47.8598 53.2602 47.9729 53.0866 48.004 52.8911C48.0354 52.6949 47.9821 52.4946 47.8574 52.3401C46.831 51.0707 46.9291 49.2414 48.085 48.0848C49.2409 46.9288 51.0709 46.8317 52.34 47.8571C52.4945 47.9829 52.6975 48.0369 52.8906 48.0041C53.0868 47.9727 53.2604 47.8599 53.3681 47.6931C54.6221 45.7531 55.5022 43.6305 55.9842 41.3849C56.0259 41.1908 55.9832 40.9878 55.8666 40.8271C55.75 40.6665 55.5706 40.5626 55.3731 40.5421C53.7482 40.3705 52.5228 39.0081 52.5228 37.3716C52.5228 35.7351 53.7482 34.3727 55.3731 34.2011C55.5706 34.1806 55.75 34.0767 55.8666 33.9161C55.9832 33.7554 56.0259 33.5524 55.9842 33.3583C55.5022 31.1127 54.6221 28.9902 53.3681 27.0502C53.2604 26.8834 53.0868 26.7706 52.8906 26.7391C52.6975 26.7077 52.4945 26.761 52.34 26.8861C51.0702 27.9128 49.2409 27.8137 48.085 26.6585C46.9291 25.5018 46.831 23.6726 47.8574 22.4031C47.9821 22.2486 48.0354 22.0484 48.004 21.8522ZM52.5673 28.4166C53.4095 29.8405 54.0411 31.3636 54.4516 32.9577C52.5081 33.5073 51.1229 35.2846 51.1229 37.3716C51.1229 39.4586 52.5081 41.2359 54.4516 41.7855C54.0411 43.3796 53.4095 44.9027 52.5673 46.3266C50.805 45.3429 48.5693 45.6204 47.0952 47.0949C45.6207 48.5694 45.3428 50.8054 46.3268 52.5677C44.9029 53.4092 43.3806 54.0408 41.7854 54.4517C41.2365 52.5082 39.4585 51.1226 37.3715 51.1226C35.2845 51.1226 33.5065 52.5082 32.9576 54.4517C31.3624 54.0408 29.8401 53.4092 28.4162 52.5677C29.4002 50.8054 29.122 48.5694 27.6478 47.0949C26.173 45.6211 23.9373 45.3429 22.1757 46.3266C21.3336 44.9027 20.7019 43.3796 20.2914 41.7855C22.2349 41.2359 23.6202 39.4586 23.6202 37.3716C23.6202 35.2846 22.2349 33.5073 20.2914 32.9577C20.7019 31.3636 21.3336 29.8405 22.1757 28.4166C23.938 29.4003 26.1737 29.1228 27.6478 27.6483C29.1223 26.1738 29.4002 23.9378 28.4162 22.1755C29.8401 21.334 31.3624 20.7024 32.9576 20.2915C33.5065 22.235 35.2845 23.6206 37.3715 23.6206C39.4585 23.6206 41.2365 22.235 41.7854 20.2915C43.3806 20.7024 44.9029 21.334 46.3268 22.1755C45.3428 23.9378 45.621 26.1738 47.0952 27.6483C48.5704 29.1228 50.8064 29.401 52.5673 28.4166Z" fill="#001F49"/>
</g>
</svg>
