<svg width="25" height="25" viewBox="0 0 25 25" fill="none" xmlns="http://www.w3.org/2000/svg">
<g id="Group 4">
<path id="Vector" d="M0.570312 12.02C0.570312 6.58942 0.570312 3.87414 2.25738 2.18707C3.94445 0.5 6.65974 0.5 12.0903 0.5H13.0503C18.4809 0.5 21.1962 0.5 22.8833 2.18707C24.5703 3.87414 24.5703 6.58942 24.5703 12.02V12.98C24.5703 18.4106 24.5703 21.1259 22.8833 22.8129C21.1962 24.5 18.4809 24.5 13.0503 24.5H12.0903C6.65974 24.5 3.94445 24.5 2.25738 22.8129C0.570312 21.1259 0.570312 18.4106 0.570312 12.98V12.02Z" fill="#0077FF"/>
<path id="Vector_2" d="M13.3401 17.7901C7.8701 17.7901 4.75013 14.0401 4.62012 7.80008H7.36013C7.45013 12.3801 9.47009 14.3201 11.0701 14.7201V7.80008H13.6502V11.75C15.2302 11.5801 16.89 9.78008 17.45 7.80008H20.03C19.6 10.2401 17.8 12.0401 16.52 12.7801C17.8 13.3801 19.8501 14.9501 20.6301 17.7901H17.79C17.18 15.8901 15.6602 14.4201 13.6502 14.2201V17.7901H13.3401Z" fill="white"/>
</g>
</svg>
