<svg width="25" height="25" viewBox="0 0 25 25" fill="none" xmlns="http://www.w3.org/2000/svg">
<g id="Group 3">
<path id="Vector" d="M0.670339 12.3919C0.669757 14.4875 1.21981 16.5338 2.26573 18.3375L0.570312 24.5L6.90523 22.8464C8.65736 23.796 10.6205 24.2936 12.6155 24.2937H12.6208C19.2065 24.2937 24.5675 18.9587 24.5703 12.4013C24.5716 9.22369 23.3297 6.23575 21.0734 3.98778C18.8174 1.74 15.8171 0.50145 12.6203 0.5C6.03373 0.5 0.673058 5.83473 0.670339 12.3919Z" fill="url(#paint0_linear_281_1729)"/>
<path id="Vector_2" d="M9.30262 7.36128C9.07894 6.87792 8.84353 6.86816 8.63075 6.85969C8.45658 6.8524 8.25745 6.85295 8.05852 6.85295C7.85939 6.85295 7.53587 6.92577 7.26241 7.21607C6.98866 7.50662 6.21729 8.20882 6.21729 9.63702C6.21729 11.0652 7.28723 12.4455 7.43644 12.6394C7.58572 12.8328 9.50202 15.8574 12.5369 17.021C15.0591 17.988 15.5724 17.7956 16.1199 17.7472C16.6673 17.6988 17.8865 17.0452 18.1352 16.3673C18.3841 15.6896 18.3841 15.1086 18.3095 14.9872C18.2348 14.8662 18.0357 14.7936 17.7371 14.6485C17.4384 14.5033 15.9705 13.801 15.6968 13.7041C15.4231 13.6073 15.224 13.559 15.0249 13.8497C14.8258 14.1399 14.254 14.7936 14.0797 14.9872C13.9056 15.1812 13.7314 15.2054 13.4329 15.0602C13.134 14.9146 12.1725 14.6084 11.0316 13.6196C10.144 12.8501 9.54474 11.8999 9.37057 11.6092C9.1964 11.319 9.35192 11.1617 9.50161 11.017C9.6358 10.887 9.80031 10.6781 9.94972 10.5086C10.0987 10.3391 10.1483 10.2182 10.2479 10.0246C10.3475 9.83075 10.2977 9.66122 10.2231 9.51602C10.1483 9.37082 9.56812 7.93522 9.30262 7.36128Z" fill="white"/>
</g>
<defs>
<linearGradient id="paint0_linear_281_1729" x1="12.5703" y1="24.5" x2="12.5703" y2="0.5" gradientUnits="userSpaceOnUse">
<stop stop-color="#1FAF38"/>
<stop offset="1" stop-color="#60D669"/>
</linearGradient>
</defs>
</svg>
