<svg width="80" height="80" viewBox="0 0 80 80" fill="none" xmlns="http://www.w3.org/2000/svg">
<g id="5">
<path id="Vector 21" d="M40 0V80" stroke="#001F49" stroke-width="2"/>
<path id="Vector" d="M67 33V28M71.9497 35.0503L75.4853 31.5147M71.9498 44.9496L75.4853 48.4852M74 40H79M67 52V47M58.5147 48.4853L62.0503 44.9497M58.5147 31.5147L62.0502 35.0502M55 40H60M72 40C72 42.7614 69.7614 45 67 45C64.2386 45 62 42.7614 62 40C62 37.2386 64.2386 35 67 35C69.7614 35 72 37.2386 72 40Z" stroke="#001F49" stroke-width="2"/>
<path id="Ellipse 11" d="M27 49C28.8367 46.9452 30 43.8994 30 40.5C30 37.1006 28.8367 34.0548 27 32" stroke="#001F49" stroke-width="2"/>
<path id="Ellipse 13" d="M27 49C28.8367 46.9452 30 43.8994 30 40.5C30 37.1006 28.8367 34.0548 27 32" stroke="#001F49" stroke-width="2"/>
<path id="Ellipse 15" d="M53 49C51.1633 46.9452 50 43.8994 50 40.5C50 37.1006 51.1633 34.0548 53 32" stroke="#001F49" stroke-width="2"/>
<path id="Ellipse 12" d="M23 67C30.347 60.5937 35 51.098 35 40.5C35 29.902 30.347 20.4063 23 14" stroke="#001F49" stroke-width="2"/>
<path id="Ellipse 14" d="M23 67C30.347 60.5937 35 51.098 35 40.5C35 29.902 30.347 20.4063 23 14" stroke="#001F49" stroke-width="2"/>
<path id="Ellipse 16" d="M57 67C49.653 60.5937 45 51.098 45 40.5C45 29.902 49.653 20.4063 57 14" stroke="#001F49" stroke-width="2"/>
<path id="Vector_2" d="M12 52V28M20.4853 48.4853L3.51472 31.5147M8 30L12 34L16 30M8 50L12 46L16 50M22 36L18 40L22 44M2 36L6 40L2 44M0 40H24M3.51472 48.4853L20.4853 31.5147" stroke="#001F49" stroke-width="2"/>
</g>
</svg>
